<svg height="512pt" viewBox="0 0 512.00026 512" width="512pt" xmlns="http://www.w3.org/2000/svg"><path fill="#b89fff" d="m505.65625 222.273438c-2.417969-2.257813-39.082031-36.097657-92.589844-63.835938 18.636719-5.820312 35.003906-14.675781 49.011719-26.566406 50.875-43.191406 49.800781-109.574219 49.730469-112.378906-.148438-5.957032-2.945313-11.53125-7.625-15.214844-4.683594-3.679688-10.761719-5.082032-16.582032-3.828125-4.488281.972656-84.292968 18.585937-152.683593 57.878906-5.4375-27.515625-29.746094-48.332031-58.832031-48.332031-6.832032 0-13.597657 1.171875-19.992188 3.433594-6.398438-2.261719-13.164062-3.433594-19.992188-3.433594-29.15625 0-53.503906 20.914062-58.871093 48.519531-68.460938-39.421875-148.515625-57.09375-153.011719-58.0625-5.820312-1.261719-11.898438.144531-16.578125 3.824219-4.679687 3.683594-7.476563 9.261718-7.625 15.214844-.0742188 2.804687-1.144531 69.1875 49.726563 112.378906 14.039062 11.914062 30.441406 20.78125 49.125 26.601562-53.46875 27.730469-90.105469 61.542969-92.523438 63.800782-5.398438 5.042968-7.578125 12.65625-5.660156 19.796874 1.921875 7.136719 7.621094 12.632813 14.820312 14.292969 2.246094.515625 54.964844 12.542969 100.261719 12.542969.429687 0 .867187-.003906 1.292969-.003906 14.152344-.074219 34.476562-1.75 50.933594-9.332032 17.820312-8.210937 31.003906-18.210937 40.738281-28.855468 9.699219 39.3125 22.246093 82.507812 27.214843 99.328125-.007812.199219-.03125.394531-.03125.59375v161.183593c0 11.042969 8.953126 19.992188 19.992188 19.992188 11.042969 0 19.996094-8.949219 19.996094-19.992188v-160.628906c4.703125-15.902344 17.59375-60.121094 27.515625-100.316406 9.714843 10.585938 22.859375 20.53125 40.589843 28.699219 14.339844 6.605469 33.894532 10.339843 53.941407 10.339843.714843 0 1.433593-.003906 2.148437-.011718 11.039063-.148438 19.871094-9.21875 19.722656-20.257813-.144531-11.042969-9.214843-19.878906-20.257812-19.726562-17.449219.230469-31.5-3.289063-38.824219-6.664063-27.539062-12.683594-42.222656-31.996094-43.71875-57.429687 86.320313 16.816406 160.15625 84.570312 161.34375 85.671875 3.851563 3.597656 8.75 5.378906 13.640625 5.378906 5.34375 0 10.675782-2.132812 14.613282-6.347656 7.539062-8.066406 7.105468-20.71875-.960938-28.253906zm-69.75-120.632813c-27.316406 22.984375-68.988281 30.273437-123.980469 21.722656 44.308594-40.132812 116.824219-65.164062 156.332031-76.566406-4.144531 16.902344-13.082031 38.625-32.351562 54.84375zm-199.804688-51.65625c3.554688 0 6.910157.898437 9.976563 2.671875 6.195313 3.585938 13.835937 3.585938 20.03125 0 3.066406-1.773438 6.421875-2.671875 9.976563-2.671875 11.023437 0 19.992187 8.96875 19.992187 19.992187 0 11.023438-8.96875 19.992188-19.992187 19.992188-3.554688 0-6.910157-.902344-9.976563-2.675781-3.097656-1.792969-6.558594-2.6875-10.015625-2.6875s-6.917969.894531-10.015625 2.6875c-3.066406 1.773437-6.421875 2.675781-9.976563 2.675781-11.023437 0-19.992187-8.96875-19.992187-19.992188 0-11.023437 8.96875-19.992187 19.992187-19.992187zm-192.539062-3.1875c39.511719 11.402344 112.027344 36.433594 156.335938 76.566406-55 8.546875-96.667969 1.257813-123.980469-21.722656-19.277344-16.222656-28.214844-37.953125-32.355469-54.84375zm107.699219 176.457031c-7.542969 3.476563-20.402344 5.59375-34.40625 5.664063-16.304688.082031-34.203125-1.710938-49.882813-3.910157 29.808594-21.289062 76.621094-49.222656 128.015625-59.203124-1.488281 25.449218-16.179687 44.761718-43.726562 57.449218zm104.832031 30.753906c-10.683594-39.902343-19.992188-78.832031-19.992188-91.289062 0-20.027344 10.554688-34.992188 19.992188-34.992188s19.992188 14.964844 19.992188 34.992188c0 12.453125-9.3125 51.382812-19.992188 91.289062zm0 0"/></svg>